{"title":"Flicka.3.Country.Pride.2012.DVDRip.XviD-miRaGe","uid":7242020,"size":737480443,"categoryP":"video","categoryS":"movies","magnet":"?xt=urn:btih:ae5c6180b1d1fd629d1e5fbb159a26c57bc94642&amp;dn=Flicka.3.Country.Pride.2012.DVDRip.XviD-miRaGe&amp;tr=udp%3A%2F%2Ftracker.openbittorrent.com%3A80&amp;tr=udp%3A%2F%2Fopen.demonii.com%3A1337&amp;tr=udp%3A%2F%2Ftracker.coppersurfer.tk%3A6969&amp;tr=udp%3A%2F%2Fexodus.desync.com%3A6969","seeders":10,"leechers":0,"uploader":"HeroMaster","files":-1,"time":1336157665,"description":"Flicka.3.Country.Pride.2012.DVDRip.XviD-miRaGe\n\n\nOnline Info:\n___________\n\nimdb: http://www.imdb.com/title/tt2039339/\nrating: G\nruntime: 111 min\ngenre: Family\nrelease date: May 1 2012\nplot: Flicka and Toby help out a struggling stable owner and her teenage daughter.\n\n\nDetails:\n___________\n\nFormat : AVI\n\nFormat/Info : Audio Video Interleave\n\nFile size : 703 MiB\n\nDuration : 1h 32mn\n\nOverall bit rate mode : Variable\n\nOverall bit rate : 1 066 Kbps\n\n\nVideo:\n_____\n\nCodec ID : XVID\n\nDuration : 1h 32mn\n\nBit rate : 940 Kbps\n\nWidth : 624 pixels\n\nHeight : 352 pixels\n\nDisplay aspect ratio : 16:9\n\nFrame rate : 23.976 fps\n\nColor space : YUV\n\nChroma subsampling : 4:2:0\n\nBit depth : 8 bits\n\nScan type : Progressive\n\nCompression mode : Lossy\n\nBits/(Pixel*Frame) : 0.179\n\nStream size : 620 MiB (88%)\n\nWriting library : XviD 64\n\n\n\nAudio:\n_____\n\nID : 1\n\nFormat : MPEG Audio\n\nFormat version : Version 1\n\nFormat profile : Layer 3\n\nMode : Joint stereo\n\nMode extension : MS Stereo\n\nCodec ID : 55\n\nCodec ID/Hint : MP3\n\nDuration : 1h 32mn\n\nBit rate mode : Variable\n\nBit rate : 113 Kbps\n\nNominal bit rate : 128 Kbps\n\nChannel(s) : 2 channels\n\nSampling rate : 48.0 KHz\n\nCompression mode : Lossy\n\nStream size : 74.6 MiB (11%)\n\nAlignment : Aligned on interleaves\n\nInterleave, duration : 24 ms (0.58 video frame)\n\nInterleave, preload duration : 162 ms\n\n\nNotes:\n_____\n\nLooking for cammers or suppliers who can bring unreleased movies/games/etc\n\nservers, accounts, etc\n\n\nGreetz:\n______\n\nthanks to 26k, HDscene, Vision, Noir, BTVRG, and everyone else we respect\n\nspecial shout out to everyone at the underground.\n\n\nPoster:\n\n &lt;a href=&quot;\nhttp://i.imgur.com/PYICY.jpg&quot; rel=&quot;nofollow&quot; target=&quot;_NEW&quot;&gt;\nhttp://i.imgur.com/PYICY.jpg&lt;/a&gt;\n\n\nScreenshots:\n\n &lt;a href=&quot;\nhttp://i.imgur.com/Eylpb.jpg&quot; rel=&quot;nofollow&quot; target=&quot;_NEW&quot;&gt;\nhttp://i.imgur.com/Eylpb.jpg&lt;/a&gt;\n\n\nENJOY!","torrent":{"xt":"urn:btih:ae5c6180b1d1fd629d1e5fbb159a26c57bc94642","amp;dn":"Flicka.3.Country.Pride.2012.DVDRip.XviD-miRaGe","amp;tr":["udp%3A%2F%2Ftracker.openbittorrent.com%3A80","udp%3A%2F%2Fopen.demonii.com%3A1337","udp%3A%2F%2Ftracker.coppersurfer.tk%3A6969","udp%3A%2F%2Fexodus.desync.com%3A6969"],"infoHash":"ae5c6180b1d1fd629d1e5fbb159a26c57bc94642","infoHashBuffer":{"type":"Buffer","data":[174,92,97,128,177,209,253,98,157,30,95,187,21,154,38,197,123,201,70,66]},"announce":[],"urlList":[]}}